<svg role="img" viewBox="0 0 24 24" xmlns="http://www.w3.org/2000/svg"><title>Behance</title><path d="M22.028 12.871h-5.91a2.84 2.84 0 0 0 .14 1.2c.205.514.524.965.955 1.353.432.387.947.674 1.543.86.597.186 1.25.279 1.96.279a5.95 5.95 0 0 0 1.956-.312c.603-.208 1.127-.473 1.572-.796.446-.322.8-.669 1.063-1.042l3.051 1.834c-.45.69-1.056 1.29-1.819 1.8a7.8 7.8 0 0 1-2.454 1.118c-.93.26-1.92.39-2.969.39-1.399 0-2.65-.251-3.75-.753-1.1-.502-2.028-1.196-2.784-2.083-.756-.887-1.332-1.93-1.728-3.13-.396-1.2-.594-2.508-.594-3.926 0-1.4.195-2.7.585-3.903.391-1.2.956-2.24 1.697-3.12.74-.88 1.65-1.57 2.73-2.071C17.382 1.25 18.6 1 19.982 1c1.334 0 2.512.235 3.533.704 1.021.47 1.879 1.114 2.573 1.933.694.82 1.22 1.776 1.578 2.87.358 1.094.537 2.27.537 3.528 0 .23-.006.467-.018.711a3.53 3.53 0 0 1-.157.625zm-5.694-2.223h3.812a2.3 2.3 0 0 0-.276-1.012 2.115 2.115 0 0 0-.74-.77c-.31-.19-.68-.285-1.111-.285-.41 0-.767.11-1.071.325a2.126 2.126 0 0 0-.614.743c-.15.3-.25.633-.3.999zm-4.741 8.353H1v-18h8.863c1.238 0 2.304.148 3.197.444.894.296 1.611.725 2.152 1.287.541.562.934 1.246 1.179 2.052.245.806.368 1.716.368 2.73 0 1.04-.154 1.952-.461 2.738-.307.786-.77 1.442-1.389 1.97-.432.368-.94.66-1.523.876.776.241 1.416.634 1.918 1.179.502.545.875 1.17 1.12 1.875.244.704.366 1.465.366 2.28 0 .977-.132 1.875-.397 2.693s-.664 1.521-1.2 2.111c-.534.59-1.2.1.047-1.996 1.371a7.818 7.818 0 0 1-2.923.498H11.593zm-5.741-10.435h2.934c1.157 0 1.993-.243 2.507-.728.514-.485.772-1.182.772-2.089 0-.422-.06-.8-.182-1.135a1.868 1.868 0 0 0-.555-.838 2.131 2.131 0 0 0-.91-.5c-.37-.113-.798-.17-1.282-.17H5.852zm0 7.834H9.13c1.38 0 2.383-.306 3.012-.917.629-.611.944-1.536.944-2.775 0-.414-.067-.812-.202-1.192a2.43 2.43 0 0 0-.606-.948c-.27-.27-.63-.482-1.082-.638a4.92 4.92 0 0 0-1.531-.234h-3.815zM15.543 4.295h8.887V1.652h-8.887z" fill="#1D232C"/></svg>